<svg width="512" height="512" viewBox="0 0 512 512" fill="none" xmlns="http://www.w3.org/2000/svg">
<path d="M478.192 384C481.762 377.816 483.98 370.849 483.98 364.592V147.407C483.98 141.151 481.765 134.185 478.193 128.001L256.49 256.001L478.192 384Z" fill="#00599C"/>
<path d="M276.191 507.307L464.279 398.716C469.698 395.587 474.622 390.186 478.192 384L256.49 256.001L34.7886 384.002C38.3585 390.186 43.2845 395.589 48.7012 398.716L236.789 507.307C247.624 513.564 265.356 513.564 276.191 507.307Z" fill="#004482"/>
<path d="M478.193 128C474.622 121.814 469.696 116.412 464.279 113.284L276.191 4.69254C265.356 -1.56418 247.624 -1.56418 236.789 4.69254L48.7009 113.284C37.8647 119.539 29 134.896 29 147.408V364.592C29 370.849 31.2169 377.816 34.7884 384L256.49 256.001L478.193 128Z" fill="#659AD2"/>
<path d="M256.49 407.661C172.864 407.661 104.83 339.626 104.83 256.001C104.83 172.375 172.864 104.341 256.49 104.341C310.451 104.341 360.777 133.379 387.826 180.123L322.192 218.104C308.654 194.706 283.477 180.171 256.49 180.171C214.677 180.171 180.66 214.187 180.66 256.001C180.66 297.813 214.677 331.831 256.49 331.831C283.48 331.831 308.657 317.295 322.196 293.893L387.831 331.872C360.782 378.621 310.454 407.661 256.49 407.661Z" fill="white"/>
<path d="M408.15 247.575H391.298V230.724H374.449V247.575H357.597V264.425H374.449V281.277H391.298V264.425H408.15V247.575Z" fill="white"/>
<path d="M471.342 247.575H454.49V230.724H437.641V247.575H420.789V264.425H437.641V281.277H454.49V264.425H471.342V247.575Z" fill="white"/>
</svg>
