<svg width="512" height="512" viewBox="0 0 512 512" fill="none" xmlns="http://www.w3.org/2000/svg">
<path d="M482.016 0L440.745 460.746L255.231 512L70.2272 460.819L29 0H482.016Z" fill="#264DE4"/>
<path d="M405.413 431.408L440.681 37.6789H255.508V472.824L405.413 431.408Z" fill="#2965F1"/>
<path d="M123.513 208.59L128.596 265.107H255.508V208.59H123.513Z" fill="#EBEBEB"/>
<path d="M255.508 94.1968H255.312H113.299L118.454 150.715H255.508V94.1968Z" fill="#EBEBEB"/>
<path d="M255.508 414.174V355.372L255.259 355.438L192.098 338.442L188.06 293.366H157.369H131.129L139.075 382.107L255.247 414.246L255.508 414.174Z" fill="#EBEBEB"/>
<path d="M325.148 265.107L318.565 338.405L255.312 355.419V414.219L371.577 382.107L372.43 372.558L385.756 223.766L387.14 208.59L397.379 94.1968H255.312V150.715H335.226L330.066 208.59H255.312V265.107H325.148Z" fill="white"/>
</svg>
