<svg width="512" height="512" viewBox="0 0 512 512" fill="none" xmlns="http://www.w3.org/2000/svg">
<path d="M188.614 395.958C188.614 395.958 169.048 407.337 202.538 411.187C243.11 415.815 263.846 415.152 308.557 406.689C308.557 406.689 320.312 414.06 336.729 420.444C236.499 463.401 109.889 417.956 188.614 395.958Z" fill="#5382A1"/>
<path d="M176.367 339.902C176.367 339.902 154.422 356.146 187.937 359.612C231.277 364.084 265.504 364.449 324.73 353.045C324.73 353.045 332.921 361.35 345.802 365.891C224.618 401.327 89.6415 368.686 176.367 339.902Z" fill="#5382A1"/>
<path d="M279.617 244.813C304.314 273.247 273.128 298.833 273.128 298.833C273.128 298.833 335.837 266.461 307.038 225.924C280.14 188.12 259.513 169.336 371.179 104.574C371.179 104.574 195.901 148.351 279.617 244.813Z" fill="#F8981D"/>
<path d="M412.179 437.421C412.179 437.421 426.658 449.351 396.233 458.58C338.379 476.106 155.439 481.399 104.619 459.279C86.3501 451.331 120.609 440.302 131.385 437.988C142.624 435.551 149.047 436.005 149.047 436.005C128.73 421.693 17.7293 464.107 92.6636 476.254C297.02 509.395 465.186 461.331 412.179 437.421Z" fill="#5382A1"/>
<path d="M198.023 281.822C198.023 281.822 104.968 303.924 165.07 311.95C190.447 315.348 241.035 314.579 288.157 310.631C326.667 307.383 365.336 300.476 365.336 300.476C365.336 300.476 351.757 306.291 341.933 312.999C247.437 337.852 64.8882 326.29 117.442 300.869C161.886 279.385 198.023 281.822 198.023 281.822Z" fill="#5382A1"/>
<path d="M364.953 375.13C461.012 325.214 416.598 277.245 385.597 283.708C377.999 285.289 374.611 286.659 374.611 286.659C374.611 286.659 377.432 282.241 382.82 280.328C444.148 258.767 491.314 343.92 363.022 377.646C363.022 377.647 364.508 376.318 364.953 375.13Z" fill="#5382A1"/>
<path d="M307.038 0C307.038 0 360.237 53.2171 256.581 135.05C173.459 200.694 237.626 238.123 256.546 280.886C208.026 237.11 172.42 198.573 196.307 162.707C231.369 110.058 328.502 84.5322 307.038 0Z" fill="#F8981D"/>
<path d="M207.462 510.39C299.667 516.293 441.258 507.116 444.612 463.487C444.612 463.487 438.166 480.026 368.409 493.161C289.71 507.971 192.646 506.242 135.077 496.75C135.078 496.749 146.862 506.504 207.462 510.39Z" fill="#5382A1"/>
</svg>
