<svg width="512" height="512" viewBox="0 0 512 512" fill="none" xmlns="http://www.w3.org/2000/svg">
<path d="M256.3 507.95C249.6 507.95 242.8 506.15 236.9 502.75L175.2 466.25C166 461.05 170.5 459.25 173.5 458.25C185.8 453.95 188.3 453.05 201.4 445.55C202.8 444.75 204.6 445.05 206 445.95L253.4 474.05C255.1 475.05 257.5 475.05 259.1 474.05L443.8 367.45C445.5 366.45 446.6 364.45 446.6 362.45V149.25C446.6 147.15 445.5 145.25 443.7 144.15L259.1 37.65C257.4 36.65 255.1 36.65 253.4 37.65L68.9 144.25C67.1 145.25 66 147.25 66 149.35V362.45C66 364.45 67.1 366.45 68.9 367.35L119.5 396.55C147 410.25 163.8 394.15 163.8 377.85V167.45C163.8 164.45 166.2 162.15 169.2 162.15H192.6C195.5 162.15 198 164.45 198 167.45V377.95C198 414.55 178 435.55 143.3 435.55C132.6 435.55 124.2 435.55 100.8 423.95L52.4 396.05C40.4 389.15 33 376.25 33 362.35V149.25C33 135.45 40.4 122.45 52.4 115.55L236.9 8.95C248.6 2.35 264.1 2.35 275.7 8.95L460.4 115.65C472.4 122.55 479.8 135.45 479.8 149.35V362.45C479.8 376.25 472.4 389.15 460.4 396.15L275.7 502.75C269.8 506.15 263.1 507.95 256.3 507.95ZM405.4 297.85C405.4 257.95 378.4 247.35 321.7 239.85C264.3 232.25 258.5 228.35 258.5 214.95C258.5 203.85 263.4 189.05 305.9 189.05C343.8 189.05 357.8 197.25 363.6 222.85C364.1 225.25 366.3 227.05 368.8 227.05H392.8C394.3 227.05 395.7 226.45 396.7 225.35C397.7 224.25 398.2 222.75 398.1 221.25C394.4 177.15 365.1 156.65 305.9 156.65C253.2 156.65 221.8 178.85 221.8 216.15C221.8 256.55 253.1 267.75 303.6 272.75C364.1 278.65 368.8 287.55 368.8 299.45C368.8 320.05 352.2 328.85 313.3 328.85C264.4 328.85 253.7 316.55 250.1 292.25C249.7 289.65 247.5 287.75 244.8 287.75H220.9C217.9 287.75 215.6 290.15 215.6 293.05C215.6 324.15 232.5 361.25 313.4 361.25C371.8 361.15 405.4 338.05 405.4 297.85V297.85Z" fill="#6A9F63"/>
</svg>
