<svg width="512" height="512" viewBox="0 0 512 512" fill="none" xmlns="http://www.w3.org/2000/svg">
<path d="M254.154 2C124.177 2.00001 132.294 58.3291 132.294 58.3291L132.438 116.685H256.473V134.207H83.1725C83.1725 134.207 0 124.781 0 255.843C-9.27359e-06 386.905 72.5948 382.258 72.5948 382.258H115.92V321.44C115.92 321.44 113.585 248.892 187.355 248.892C261.126 248.892 310.375 248.892 310.375 248.892C310.375 248.892 379.493 250.009 379.493 182.137C379.493 114.266 379.493 69.9135 379.493 69.9135C379.493 69.9135 389.987 2 254.154 2ZM185.762 41.2421C198.102 41.2421 208.076 51.2097 208.076 63.5421C208.076 75.8745 198.102 85.842 185.762 85.842C173.421 85.842 163.447 75.8745 163.447 63.5421C163.447 51.2097 173.421 41.2421 185.762 41.2421Z" fill="url(#paint0_linear)"/>
<path d="M257.846 511C387.823 511 379.707 454.671 379.707 454.671L379.562 396.314H255.528V378.793H428.828C428.828 378.793 512 388.219 512 257.157C512 126.095 439.405 130.742 439.405 130.742H396.08V191.56C396.08 191.56 398.416 264.108 324.645 264.108C250.874 264.108 201.625 264.108 201.625 264.108C201.625 264.108 132.508 262.991 132.508 330.863C132.508 398.734 132.508 443.086 132.508 443.086C132.508 443.086 122.014 511 257.846 511ZM326.239 471.758C313.898 471.758 303.924 461.79 303.924 449.458C303.924 437.125 313.898 427.158 326.239 427.158C338.579 427.158 348.553 437.125 348.553 449.458C348.553 461.79 338.579 471.758 326.239 471.758Z" fill="url(#paint1_linear)"/>
<defs>
<linearGradient id="paint0_linear" x1="49.2042" y1="46.4911" x2="302.207" y2="300.506" gradientUnits="userSpaceOnUse">
<stop stop-color="#387EB8"/>
<stop offset="1" stop-color="#366994"/>
</linearGradient>
<linearGradient id="paint1_linear" x1="204.943" y1="207.979" x2="476.677" y2="468.484" gradientUnits="userSpaceOnUse">
<stop stop-color="#FFE052"/>
<stop offset="1" stop-color="#FFC331"/>
</linearGradient>
</defs>
</svg>
