<svg width="512" height="512" viewBox="0 0 512 512" fill="none" xmlns="http://www.w3.org/2000/svg">
<path d="M501.6 256.5C501.6 224 460.9 193.2 398.5 174.1C412.9 110.5 406.5 59.9 378.3 43.7C371.8 39.9 364.2 38.1 355.9 38.1V60.4C360.5 60.4 364.2 61.3 367.3 63C380.9 70.8 386.8 100.5 382.2 138.7C381.1 148.1 379.3 158 377.1 168.1C357.5 163.3 336.1 159.6 313.6 157.2C300.1 138.7 286.1 121.9 272 107.2C304.6 76.9 335.2 60.3 356 60.3V38C328.5 38 292.5 57.6 256.1 91.6C219.7 57.8 183.7 38.4 156.2 38.4V60.7C176.9 60.7 207.6 77.2 240.2 107.3C226.2 122 212.2 138.7 198.9 157.2C176.3 159.6 154.9 163.3 135.3 168.2C133 158.2 131.3 148.5 130.1 139.2C125.4 101 131.2 71.3 144.7 63.4C147.7 61.6 151.6 60.8 156.2 60.8V38.5C147.8 38.5 140.2 40.3 133.6 44.1C105.5 60.3 99.2 110.8 113.7 174.2C51.5 193.4 11 224.1 11 256.5C11 289 51.7 319.8 114.1 338.9C99.7 402.5 106.1 453.1 134.3 469.3C140.8 473.1 148.4 474.9 156.8 474.9C184.3 474.9 220.3 455.3 256.7 421.3C293.1 455.1 329.1 474.5 356.6 474.5C365 474.5 372.6 472.7 379.2 468.9C407.3 452.7 413.6 402.2 399.1 338.8C461.1 319.7 501.6 288.9 501.6 256.5V256.5ZM371.4 189.8C367.7 202.7 363.1 216 357.9 229.3C353.8 221.3 349.5 213.3 344.8 205.3C340.2 197.3 335.3 189.5 330.4 181.9C344.6 184 358.3 186.6 371.4 189.8ZM325.6 296.3C317.8 309.8 309.8 322.6 301.5 334.5C286.6 335.8 271.5 336.5 256.3 336.5C241.2 336.5 226.1 335.8 211.3 334.6C203 322.7 194.9 310 187.1 296.6C179.5 283.5 172.6 270.2 166.3 256.8C172.5 243.4 179.5 230 187 216.9C194.8 203.4 202.8 190.6 211.1 178.7C226 177.4 241.1 176.7 256.3 176.7C271.4 176.7 286.5 177.4 301.3 178.6C309.6 190.5 317.7 203.2 325.5 216.6C333.1 229.7 340 243 346.3 256.4C340 269.8 333.1 283.2 325.6 296.3ZM357.9 283.3C363.3 296.7 367.9 310.1 371.7 323.1C358.6 326.3 344.8 329 330.5 331.1C335.4 323.4 340.3 315.5 344.9 307.4C349.5 299.4 353.8 291.3 357.9 283.3ZM256.5 390C247.2 380.4 237.9 369.7 228.7 358C237.7 358.4 246.9 358.7 256.2 358.7C265.6 358.7 274.9 358.5 284 358C275 369.7 265.7 380.4 256.5 390ZM182.1 331.1C167.9 329 154.2 326.4 141.1 323.2C144.8 310.3 149.4 297 154.6 283.7C158.7 291.7 163 299.7 167.7 307.7C172.4 315.7 177.2 323.5 182.1 331.1ZM256 123C265.3 132.6 274.6 143.3 283.8 155C274.8 154.6 265.6 154.3 256.3 154.3C246.9 154.3 237.6 154.5 228.5 155C237.5 143.3 246.8 132.6 256 123ZM182 181.9C177.1 189.6 172.2 197.5 167.6 205.6C163 213.6 158.7 221.6 154.6 229.6C149.2 216.2 144.6 202.8 140.8 189.8C153.9 186.7 167.7 184 182 181.9ZM91.5 307.1C56.1 292 33.2 272.2 33.2 256.5C33.2 240.8 56.1 220.9 91.5 205.9C100.1 202.2 109.5 198.9 119.2 195.8C124.9 215.4 132.4 235.8 141.7 256.7C132.5 277.5 125.1 297.8 119.5 317.3C109.6 314.2 100.2 310.8 91.5 307.1ZM145.3 450C131.7 442.2 125.8 412.5 130.4 374.3C131.5 364.9 133.3 355 135.5 344.9C155.1 349.7 176.5 353.4 199 355.8C212.5 374.3 226.5 391.1 240.6 405.8C208 436.1 177.4 452.7 156.6 452.7C152.1 452.6 148.3 451.7 145.3 450V450ZM382.5 373.8C387.2 412 381.4 441.7 367.9 449.6C364.9 451.4 361 452.2 356.4 452.2C335.7 452.2 305 435.7 272.4 405.6C286.4 390.9 300.4 374.2 313.7 355.7C336.3 353.3 357.7 349.6 377.3 344.7C379.6 354.8 381.4 364.5 382.5 373.8V373.8ZM421 307.1C412.4 310.8 403 314.1 393.3 317.2C387.6 297.6 380.1 277.2 370.8 256.3C380 235.5 387.4 215.2 393 195.7C402.9 198.8 412.3 202.2 421.1 205.9C456.5 221 479.4 240.8 479.4 256.5C479.3 272.2 456.4 292.1 421 307.1V307.1Z" fill="#61DAFB"/>
<path d="M256.2 302.2C281.439 302.2 301.9 281.739 301.9 256.5C301.9 231.261 281.439 210.8 256.2 210.8C230.961 210.8 210.5 231.261 210.5 256.5C210.5 281.739 230.961 302.2 256.2 302.2Z" fill="#61DAFB"/>
</svg>
